<?xml version="1.0" encoding="iso-8859-1"?>
<!-- Generator: Adobe Illustrator 18.1.1, SVG Export Plug-In . SVG Version: 6.00 Build 0)  -->
<svg version="1.1" id="Capa_1" xmlns="http://www.w3.org/2000/svg" xmlns:xlink="http://www.w3.org/1999/xlink" x="0px" y="0px"
	 viewBox="0 0 27.195 27.195" style="enable-background:new 0 0 27.195 27.195;" xml:space="preserve">
<g>
	<g id="c50_box">
		<path d="M0,26.983h27.195V8.407H0V26.983z M8.049,17.024c0,0,4.608-4.762,5.109-5.263c0.364-0.362,0.709,0.043,0.709,0.043
			l5.242,5.096c0,0,0.639,0.606-0.057,0.606c-0.693,0-2.377,0-2.377,0s0,0.408,0,1.033c0,1.795,0,5.058,0,6.384
			c0,0,0.096,0.362-0.453,0.362s-4.996,0-5.386,0c-0.394,0-0.383-0.303-0.383-0.303c0-1.291,0-4.664,0-6.398
			c0-0.561,0-0.929,0-0.929s-1.35,0-2.197,0C7.413,17.656,8.049,17.024,8.049,17.024z"/>
		<polygon points="12.794,0.212 2.307,0.212 0.244,7.315 12.308,7.315 		"/>
		<polygon points="27.195,7.315 24.73,0.212 14.403,0.212 15.02,7.315 		"/>
	</g>
	<g id="Capa_1_38_">
	</g>
</g>
<g>
</g>
<g>
</g>
<g>
</g>
<g>
</g>
<g>
</g>
<g>
</g>
<g>
</g>
<g>
</g>
<g>
</g>
<g>
</g>
<g>
</g>
<g>
</g>
<g>
</g>
<g>
</g>
<g>
</g>
</svg>
