<?xml version="1.0" encoding="UTF-8" standalone="no"?>
<svg width="158px" height="44px" viewBox="0 0 158 44" version="1.1" xmlns="http://www.w3.org/2000/svg" xmlns:xlink="http://www.w3.org/1999/xlink" xmlns:sketch="http://www.bohemiancoding.com/sketch/ns">
    <!-- Generator: Sketch 3.2.2 (9983) - http://www.bohemiancoding.com/sketch -->
    <title>whitelogo</title>
    <desc>Created with Sketch.</desc>
    <defs></defs>
    <g id="grapefruit" stroke="none" stroke-width="1" fill="none" fill-rule="evenodd" sketch:type="MSPage">
        <g id="whitelogo" sketch:type="MSArtboardGroup">
            <g id="grapefruit-logo" sketch:type="MSLayerGroup" transform="translate(7.000000, 4.000000)">
                <g id="Page-1" sketch:type="MSShapeGroup">
                    <g id="lime">
                        <path d="M1.49498543,10.6419009 C1.13023139,11.4375298 0.612177968,12.2425189 0.408092511,13.0993477 C-0.313812447,16.1300819 0.0441580957,19.0745716 1.0106353,21.9929647 C1.49884947,23.4673156 2.0223954,24.9529016 2.97249337,26.2057306 C5.15622507,29.0852726 7.86070649,30.8847104 11.2110227,32.0823072 C13.4051716,32.8665833 15.7900659,33.1280063 18.1152923,32.8424777 C19.6878228,32.6492754 21.4399851,32.4904746 22.9131646,31.886648 C28.7143674,29.5090069 32.5142804,23.9482749 32.9664522,17.7801987 C33.6444707,8.53060391 24.1913885,-1.0683585 14.8386823,0.159650723 C8.73859812,0.960615021 3.98964067,5.19982755 1.49498543,10.6419009 L1.49498543,10.6419009 Z" id="path643" stroke="#CA4443" stroke-width="4" fill="#FFFFFF"></path>
                        <path d="M15.2962357,0.752338798 C12.8652372,1.09472105 10.3173318,1.92287922 8.28549056,3.35533726 C4.86063085,5.76983854 2.26264102,8.99564635 1.21237974,13.0993477 C-0.324460213,19.1047626 2.45490768,26.0765387 7.58383438,29.4742519 C10.8252038,31.6214752 15.1002266,32.5001883 18.9344411,32.0352637 C27.5555037,30.9896789 33.1966306,22.6365817 32.0044193,14.2695604 C30.9882077,7.13734789 22.7490998,-0.297117255 15.2962358,0.752338798 L15.2962357,0.752338798 L15.2962357,0.752338798 Z" id="path705" fill="#FFFFFF"></path>
                        <path d="M16.2429375,3.43666786 C13.7674703,3.73226372 11.613344,4.04634766 9.45570345,5.45130651 C4.18892814,8.88096597 1.77466265,15.8904236 4.29202529,21.7390305 C5.50366405,24.5539765 7.69406679,26.8408053 10.3082038,28.4150929 C12.9633026,30.0140718 16.3220468,30.034317 19.2855048,29.6968273 C21.2025461,29.4785838 23.2370799,28.1421992 24.6836969,26.9396884 C27.4350897,24.6525096 29.3241648,21.6111241 29.6671541,18.0142413 C30.352665,10.825859 23.979698,2.5129005 16.2429374,3.43666786 L16.2429375,3.43666786 L16.2429375,3.43666786 Z" id="path1028" fill="#CA4443"></path>
                        <path d="M17.179122,4.1758915 C16.0416643,4.1998811 14.3745789,4.00387011 13.6742047,5.15418949 C13.3431504,5.69775203 13.7179699,6.24681598 13.867407,6.78019884 C14.2525259,8.15473099 14.5290443,9.53160415 15.0437051,10.8759435 C15.4164176,11.8497953 15.5770897,12.8523168 16.0514923,13.8014754 C16.1740132,14.0466351 16.3903855,14.5964009 16.7242468,14.5964009 C17.4062578,14.5964009 18.1695889,12.1369649 18.4210696,11.5780712 C19.0643331,10.1480728 19.5025772,8.62316786 19.9430461,7.13126267 C20.1124927,6.55739127 20.4856766,5.87972105 20.233728,5.27156078 C19.8527053,4.35200735 18.0322045,4.15798736 17.179122,4.17589162 L17.179122,4.1758915 L17.179122,4.1758915 Z" id="path1177" fill="#FFFFFF"></path>
                        <path d="M11.3279295,6.31410462 C9.82935507,6.22072117 7.91944918,8.46331703 7.26565061,9.58870936 C7.02236583,10.0077636 6.44357684,10.7042738 6.6895579,11.2058264 C6.97520438,11.7884758 7.87111998,12.2050712 8.40251184,12.5305081 C10.0688973,13.5509337 12.9359186,15.2472744 14.9504394,15.1983596 C15.8972589,15.1753057 15.2520027,13.5554978 15.052483,13.0993475 C14.3181716,11.4204433 13.4557253,9.74914565 12.7657683,8.06743265 C12.4870249,7.38800712 12.2562572,6.37191161 11.3279294,6.3141045 L11.3279295,6.31410462 L11.3279295,6.31410462 Z" id="path1459" fill="#FFFFFF"></path>
                        <path d="M22.363281,6.77879529 C21.7765354,7.09334895 21.5096127,7.98727354 21.1963466,8.53551787 C20.3539098,10.0099867 19.4667687,11.4429116 18.7584414,12.9823264 C18.5083641,13.5258907 17.8860458,14.4338591 18.1606964,15.0712747 C18.4048027,15.6377733 19.3493974,15.2497315 19.7535901,15.0806349 C21.0960599,14.5188163 22.2298786,13.6480617 23.4982709,12.9578691 C24.479142,12.4241363 25.8561203,11.7492747 26.2894505,10.641901 C26.9238216,9.02068949 24.0479188,5.87574268 22.363281,6.7787954 L22.363281,6.77879529 L22.363281,6.77879529 Z" id="path1532" fill="#FFFFFF"></path>
                        <path d="M27.1259197,13.2499544 C26.7335477,13.2408264 26.345854,13.5741038 25.955707,13.6459547 C24.1647079,13.9758377 22.3735802,14.7906566 20.6897603,15.5112741 C20.2498769,15.6995607 18.9868664,16.1002428 19.0071116,16.7227951 C19.0274711,17.3471044 20.3611629,17.6545192 20.8067816,17.8492444 C22.7395039,18.6940203 24.8704639,19.7940196 27.0176729,19.761486 C28.8111432,19.7344554 28.8759714,15.7064655 28.4612473,14.503603 C28.297536,14.0287308 27.6743963,13.2627106 27.1259198,13.2499544 L27.1259197,13.2499544 L27.1259197,13.2499544 Z" id="path2530" fill="#FFFFFF"></path>
                        <path d="M5.94682211,13.400445 C4.85208678,13.7186252 4.69095035,15.2033916 4.67421572,16.141901 C4.63723583,18.2125933 4.74899326,20.4349441 7.46634163,19.706486 C9.18339529,19.2462433 11.0691956,18.5672856 12.6152778,17.6978166 C13.0557468,17.4500821 14.0120443,17.1590501 14.1399506,16.5950085 C14.3171217,15.8144768 12.870269,15.5339765 12.3812352,15.2912738 C11.2707045,14.7399867 10.1331396,14.4708374 8.98761822,14.0370395 C8.10457684,13.7027103 6.92781088,13.1154969 5.94682211,13.4004453 L5.94682211,13.400445 L5.94682211,13.400445 Z" id="path2596" fill="#FFFFFF"></path>
                        <path d="M14.4871505,17.7627642 C13.8266845,17.8462019 13.2015557,18.3574664 12.6148101,18.6369132 C10.8949494,19.4560622 8.02348203,20.5692856 7.0787695,22.3487104 C6.1507916,24.0964229 8.75977897,26.8017221 10.6153848,26.6124982 C11.359642,26.5365494 11.8895124,25.3767538 12.1786731,24.8014754 C13.0692068,23.0295395 14.0762904,21.3217317 14.9445899,19.535518 C15.2140875,18.9811882 15.5758006,17.6253799 14.4871506,17.7627642 L14.4871505,17.7627642 L14.4871505,17.7627642 Z" id="path3408" fill="#FFFFFF"></path>
                        <path d="M18.3208972,18.2516765 C17.6899187,18.7781579 18.9917804,21.2927119 19.2727486,21.8759434 C19.8724826,23.1206979 20.3994319,24.3824228 21.0080583,25.6206243 C21.2538036,26.1206573 21.4403349,26.8135391 22.0985795,26.8858597 C22.9478017,26.9790075 23.8018234,26.0757209 24.4010896,25.577677 C25.1380794,24.9653044 27.1351621,22.9655291 26.6879078,21.8881141 C26.1953671,20.7014024 23.7522086,19.9780939 22.679122,19.4578156 C21.6354085,18.9517007 20.6534839,18.5162636 19.5195475,18.2874885 C19.1866219,18.2203141 18.6244498,17.998328 18.3208973,18.2516765 L18.3208972,18.2516765 L18.3208972,18.2516765 Z" id="path3493" fill="#FFFFFF"></path>
                        <path d="M16.3667476,18.9663284 C15.3861088,19.3869021 14.9524286,21.791338 14.6370554,22.6950923 C14.1938974,23.9651239 12.7554728,26.2059663 13.1521731,27.5991045 C13.3218553,28.1947423 14.0787474,28.3705064 14.6046396,28.5015733 C15.9789397,28.8440948 18.0577173,29.0818799 19.3902377,28.4475088 C20.2302175,28.0475301 20.0574961,27.1520824 19.8628868,26.4393053 C19.359111,24.5939989 18.6851852,22.5698786 17.9017268,20.8227519 C17.6569207,20.2768502 17.2935683,18.5688067 16.3667475,18.9663284 L16.3667476,18.9663284 L16.3667476,18.9663284 Z" id="path3689" fill="#FFFFFF"></path>
                    </g>
                    <path d="M55.8004255,11.8917021 L55.8004255,21.0965957 C55.8004255,22.0093663 55.6880863,22.834358 55.4634043,23.5715957 C55.2387222,24.3088335 54.8911726,24.9337208 54.4207447,25.4462766 C53.9503168,25.9588324 53.3570249,26.3555305 52.6408511,26.636383 C51.9246772,26.9172354 51.0751113,27.0576596 50.0921277,27.0576596 C49.1512719,27.0576596 48.2595787,26.938299 47.4170213,26.6995745 C46.5744639,26.4608499 45.79511,26.0255351 45.0789362,25.393617 L46.5955319,23.3293617 C47.1010664,23.7927683 47.6276569,24.1508498 48.1753191,24.403617 C48.7229814,24.6563843 49.35489,24.782766 50.0710638,24.782766 C50.6748967,24.782766 51.1839341,24.6985115 51.5981915,24.53 C52.0124489,24.3614885 52.3424456,24.1297888 52.5881915,23.8348936 C52.8339375,23.5399985 53.0094676,23.1854276 53.1147872,22.7711702 C53.220107,22.3569128 53.272766,21.8970239 53.272766,21.3914894 L53.272766,20.6542553 L53.2306383,20.6542553 C52.86553,21.1457471 52.3810669,21.5143605 51.777234,21.7601064 C51.1734012,22.0058524 50.5555351,22.1287234 49.923617,22.1287234 C49.1653154,22.1287234 48.4772371,21.9918099 47.8593617,21.7179787 C47.2414863,21.4441475 46.7113852,21.0755343 46.2690426,20.6121277 C45.8266999,20.1487211 45.4861714,19.601067 45.2474468,18.9691489 C45.0087222,18.3372309 44.8893617,17.6631951 44.8893617,16.9470213 C44.8893617,16.2027622 45.001701,15.5076629 45.226383,14.8617021 C45.451065,14.2157414 45.7810616,13.6540449 46.216383,13.1765957 C46.6517044,12.6991466 47.1747842,12.323512 47.7856383,12.0496809 C48.3964924,11.7758497 49.0951024,11.6389362 49.8814894,11.6389362 C50.5976632,11.6389362 51.2646778,11.7793603 51.8825532,12.0602128 C52.5004286,12.3410652 52.991913,12.7904225 53.3570213,13.4082979 L53.3991489,13.4082979 L53.3991489,11.8917021 L55.8004255,11.8917021 L55.8004255,11.8917021 Z M50.4080851,13.9138298 C49.9587212,13.9138298 49.5514912,13.9875525 49.186383,14.135 C48.8212747,14.2824475 48.5088311,14.4860625 48.2490426,14.7458511 C47.989254,15.0056396 47.785639,15.3215939 47.6381915,15.6937234 C47.490744,16.0658529 47.4170213,16.4765935 47.4170213,16.9259574 C47.4170213,17.3331935 47.490744,17.7123387 47.6381915,18.0634043 C47.785639,18.4144698 47.9927647,18.723403 48.2595745,18.9902128 C48.5263843,19.2570226 48.8423386,19.4676588 49.2074468,19.6221277 C49.5725551,19.7765966 49.9657426,19.8538298 50.3870213,19.8538298 C50.8504279,19.8538298 51.2681896,19.7765966 51.6403191,19.6221277 C52.0124487,19.4676588 52.328403,19.2605332 52.5881915,19.0007447 C52.84798,18.7409562 53.0480844,18.4285125 53.1885106,18.0634043 C53.3289369,17.698296 53.3991489,17.3051085 53.3991489,16.8838298 C53.3991489,15.9991445 53.1323431,15.2829814 52.5987234,14.7353191 C52.0651037,14.1876569 51.3348983,13.9138298 50.4080851,13.9138298 L50.4080851,13.9138298 L50.4080851,13.9138298 Z M58.6651064,11.8917021 L61.192766,11.8917021 L61.192766,13.4925532 L61.2348936,13.4925532 C61.5157461,12.902763 61.9159549,12.4463846 62.4355319,12.1234043 C62.955109,11.8004239 63.5519115,11.6389362 64.2259574,11.6389362 C64.3804264,11.6389362 64.5313823,11.6529786 64.6788298,11.6810638 C64.8262773,11.7091491 64.9772332,11.7442551 65.1317021,11.786383 L65.1317021,14.2297872 C64.9210628,14.1736168 64.7139372,14.127979 64.5103191,14.0928723 C64.3067011,14.0577658 64.1065967,14.0402128 63.91,14.0402128 C63.3202098,14.0402128 62.8462784,14.1490415 62.4881915,14.3667021 C62.1301046,14.5843628 61.8562775,14.8336156 61.6667021,15.1144681 C61.4771267,15.3953206 61.350745,15.6761688 61.2875532,15.9570213 C61.2243614,16.2378737 61.192766,16.4485099 61.192766,16.5889362 L61.192766,22.0023404 L58.6651064,22.0023404 L58.6651064,11.8917021 L58.6651064,11.8917021 Z M73.1780851,20.6121277 L73.1148936,20.6121277 C72.7497854,21.1878753 72.2863858,21.605637 71.7246809,21.8654255 C71.1629759,22.1252141 70.5451098,22.2551064 69.8710638,22.2551064 C69.4076572,22.2551064 68.9547895,22.1919155 68.5124468,22.0655319 C68.0701042,21.9391484 67.6769166,21.7495758 67.3328723,21.4968085 C66.988828,21.2440413 66.7114904,20.928087 66.5008511,20.5489362 C66.2902117,20.1697854 66.1848936,19.7274494 66.1848936,19.2219149 C66.1848936,18.6742526 66.2831906,18.2073424 66.4797872,17.8211702 C66.6763839,17.4349981 66.9396792,17.1120226 67.2696809,16.852234 C67.5996825,16.5924455 67.9823382,16.38532 68.4176596,16.2308511 C68.8529809,16.0763822 69.3058487,15.9605323 69.7762766,15.8832979 C70.2467045,15.8060635 70.720636,15.756915 71.1980851,15.7358511 C71.6755343,15.7147871 72.1248915,15.7042553 72.5461702,15.7042553 L73.1780851,15.7042553 L73.1780851,15.4304255 C73.1780851,14.7985075 72.9604278,14.3245761 72.5251064,14.008617 C72.089785,13.6926579 71.5351098,13.5346809 70.8610638,13.5346809 C70.3274441,13.5346809 69.8289385,13.6294671 69.3655319,13.8190426 C68.9021253,14.008618 68.5019165,14.264892 68.1648936,14.5878723 L66.8378723,13.2608511 C67.3995773,12.6851035 68.0560601,12.2708524 68.8073404,12.0180851 C69.5586208,11.7653179 70.3344641,11.6389362 71.1348936,11.6389362 C71.8510675,11.6389362 72.4548912,11.71968 72.946383,11.8811702 C73.4378748,12.0426604 73.8451047,12.2497859 74.1680851,12.5025532 C74.4910655,12.7553204 74.7403183,13.0467005 74.9158511,13.3767021 C75.0913839,13.7067038 75.2177656,14.0402111 75.295,14.377234 C75.3722344,14.714257 75.4178722,15.0407432 75.4319149,15.3567021 C75.4459576,15.6726612 75.4529787,15.9499988 75.4529787,16.1887234 L75.4529787,22.0023404 L73.1780851,22.0023404 L73.1780851,20.6121277 L73.1780851,20.6121277 Z M73.0306383,17.473617 L72.5040426,17.473617 C72.152977,17.473617 71.7597895,17.4876595 71.3244681,17.5157447 C70.8891467,17.5438299 70.4784062,17.6105314 70.092234,17.7158511 C69.706062,17.8211708 69.3795758,17.9756372 69.112766,18.1792553 C68.8459562,18.3828734 68.7125532,18.6672322 68.7125532,19.0323404 C68.7125532,19.271065 68.7652123,19.4711694 68.8705319,19.6326596 C68.9758515,19.7941498 69.1127651,19.9310632 69.2812766,20.0434043 C69.4497881,20.1557453 69.6393606,20.2364891 69.85,20.2856383 C70.0606394,20.3347875 70.2712755,20.3593617 70.4819149,20.3593617 C71.3525575,20.3593617 71.9949979,20.1522361 72.4092553,19.7379787 C72.8235127,19.3237213 73.0306383,18.7585143 73.0306383,18.0423404 L73.0306383,17.473617 L73.0306383,17.473617 Z M78.1702128,11.8917021 L80.5714894,11.8917021 L80.5714894,13.4082979 L80.613617,13.4082979 C80.9787253,12.7904225 81.4702097,12.3410652 82.0880851,12.0602128 C82.7059605,11.7793603 83.3729751,11.6389362 84.0891489,11.6389362 C84.8614932,11.6389362 85.5565927,11.7758497 86.1744681,12.0496809 C86.7923435,12.323512 87.3189339,12.6991466 87.7542553,13.1765957 C88.1895767,13.6540449 88.5195733,14.2157414 88.7442553,14.8617021 C88.9689373,15.5076629 89.0812766,16.2027622 89.0812766,16.9470213 C89.0812766,17.6912803 88.9619161,18.3863797 88.7231915,19.0323404 C88.4844669,19.6783011 88.1509596,20.2399977 87.7226596,20.7174468 C87.2943596,21.194896 86.7783009,21.5705305 86.1744681,21.8443617 C85.5706353,22.1181929 84.9106419,22.2551064 84.1944681,22.2551064 C83.7170189,22.2551064 83.2957466,22.2059579 82.9306383,22.1076596 C82.56553,22.0093612 82.2425546,21.8829795 81.9617021,21.7285106 C81.6808497,21.5740417 81.4421286,21.4090434 81.2455319,21.2335106 C81.0489352,21.0579779 80.8874474,20.8859583 80.7610638,20.7174468 L80.6978723,20.7174468 L80.6978723,26.8048936 L78.1702128,26.8048936 L78.1702128,11.8917021 L78.1702128,11.8917021 Z M86.553617,16.9470213 C86.553617,16.5538278 86.4869156,16.1746827 86.3535106,15.8095745 C86.2201057,15.4444662 86.0235119,15.1214908 85.7637234,14.8406383 C85.5039349,14.5597858 85.1914912,14.3351072 84.826383,14.1665957 C84.4612747,13.9980843 84.0470236,13.9138298 83.583617,13.9138298 C83.1202104,13.9138298 82.7059593,13.9980843 82.3408511,14.1665957 C81.9757428,14.3351072 81.6632992,14.5597858 81.4035106,14.8406383 C81.1437221,15.1214908 80.9471284,15.4444662 80.8137234,15.8095745 C80.6803184,16.1746827 80.613617,16.5538278 80.613617,16.9470213 C80.613617,17.3402148 80.6803184,17.7193598 80.8137234,18.0844681 C80.9471284,18.4495763 81.1437221,18.7725518 81.4035106,19.0534043 C81.6632992,19.3342567 81.9757428,19.5589354 82.3408511,19.7274468 C82.7059593,19.8959583 83.1202104,19.9802128 83.583617,19.9802128 C84.0470236,19.9802128 84.4612747,19.8959583 84.826383,19.7274468 C85.1914912,19.5589354 85.5039349,19.3342567 85.7637234,19.0534043 C86.0235119,18.7725518 86.2201057,18.4495763 86.3535106,18.0844681 C86.4869156,17.7193598 86.553617,17.3402148 86.553617,16.9470213 L86.553617,16.9470213 L86.553617,16.9470213 Z M93.4625532,17.8317021 C93.546809,18.5900037 93.8416996,19.1797851 94.347234,19.6010638 C94.8527685,20.0223425 95.4636134,20.2329787 96.1797872,20.2329787 C96.8117053,20.2329787 97.3418064,20.1030864 97.7701064,19.8432979 C98.1984064,19.5835094 98.5740409,19.2570233 98.8970213,18.8638298 L100.708511,20.2329787 C100.11872,20.9631951 99.458727,21.4827644 98.7285106,21.7917021 C97.9982942,22.1006398 97.2329827,22.2551064 96.4325532,22.2551064 C95.6742516,22.2551064 94.9580885,22.1287247 94.2840426,21.8759574 C93.6099966,21.6231902 93.0272365,21.2651087 92.5357447,20.8017021 C92.0442529,20.3382955 91.6545759,19.7801097 91.3667021,19.1271277 C91.0788284,18.4741457 90.9348936,17.7474508 90.9348936,16.9470213 C90.9348936,16.1465918 91.0788284,15.4198969 91.3667021,14.7669149 C91.6545759,14.1139329 92.0442529,13.555747 92.5357447,13.0923404 C93.0272365,12.6289338 93.6099966,12.2708524 94.2840426,12.0180851 C94.9580885,11.7653179 95.6742516,11.6389362 96.4325532,11.6389362 C97.1346844,11.6389362 97.7771247,11.7618073 98.3598936,12.0075532 C98.9426625,12.2532992 99.4411681,12.60787 99.8554255,13.0712766 C100.269683,13.5346832 100.592658,14.1069115 100.824362,14.7879787 C101.056065,15.4690459 101.171915,16.2519104 101.171915,17.1365957 L101.171915,17.8317021 L93.4625532,17.8317021 L93.4625532,17.8317021 Z M98.6442553,15.9359574 C98.6302126,15.1916984 98.3985129,14.6054276 97.9491489,14.1771277 C97.499785,13.7488277 96.8748976,13.5346809 96.0744681,13.5346809 C95.3161665,13.5346809 94.7158533,13.7523382 94.2735106,14.1876596 C93.831168,14.6229809 93.5608515,15.2057411 93.4625532,15.9359574 L98.6442553,15.9359574 L98.6442553,15.9359574 Z M104.436809,14.0402128 L102.351489,14.0402128 L102.351489,11.8917021 L104.436809,11.8917021 L104.436809,10.4593617 C104.436809,9.75723053 104.485957,9.12181135 104.584255,8.55308511 C104.682554,7.98435886 104.868616,7.49638501 105.142447,7.08914894 C105.416278,6.68191286 105.798934,6.36946917 106.290426,6.15180851 C106.781917,5.93414785 107.420847,5.82531915 108.207234,5.82531915 C108.782982,5.82531915 109.316593,5.87446759 109.808085,5.97276596 L109.639574,8.1212766 C109.45702,8.07914873 109.28149,8.04404269 109.112979,8.01595745 C108.944467,7.9878722 108.768937,7.97382979 108.586383,7.97382979 C108.235317,7.97382979 107.954469,8.02999944 107.74383,8.14234043 C107.53319,8.25468141 107.368192,8.40563735 107.24883,8.59521277 C107.129468,8.78478818 107.052234,9.00595618 107.017128,9.2587234 C106.982021,9.51149063 106.964468,9.77829647 106.964468,10.0591489 L106.964468,11.8917021 L109.302553,11.8917021 L109.302553,14.0402128 L106.964468,14.0402128 L106.964468,22.0023404 L104.436809,22.0023404 L104.436809,14.0402128 L104.436809,14.0402128 Z M110.945532,11.8917021 L113.473191,11.8917021 L113.473191,13.4925532 L113.515319,13.4925532 C113.796172,12.902763 114.19638,12.4463846 114.715957,12.1234043 C115.235534,11.8004239 115.832337,11.6389362 116.506383,11.6389362 C116.660852,11.6389362 116.811807,11.6529786 116.959255,11.6810638 C117.106703,11.7091491 117.257658,11.7442551 117.412128,11.786383 L117.412128,14.2297872 C117.201488,14.1736168 116.994363,14.127979 116.790745,14.0928723 C116.587126,14.0577658 116.387022,14.0402128 116.190426,14.0402128 C115.600635,14.0402128 115.126704,14.1490415 114.768617,14.3667021 C114.41053,14.5843628 114.136703,14.8336156 113.947128,15.1144681 C113.757552,15.3953206 113.631171,15.6761688 113.567979,15.9570213 C113.504787,16.2378737 113.473191,16.4485099 113.473191,16.5889362 L113.473191,22.0023404 L110.945532,22.0023404 L110.945532,11.8917021 L110.945532,11.8917021 Z M128.365319,22.0023404 L125.964043,22.0023404 L125.964043,20.3804255 L125.921915,20.3804255 C125.68319,20.88596 125.318087,21.3247854 124.826596,21.6969149 C124.335104,22.0690444 123.66809,22.2551064 122.825532,22.2551064 C122.151486,22.2551064 121.579258,22.1462776 121.10883,21.928617 C120.638402,21.7109564 120.255746,21.4160657 119.960851,21.0439362 C119.665956,20.6718066 119.45532,20.2470236 119.328936,19.7695745 C119.202552,19.2921253 119.139362,18.7936196 119.139362,18.2740426 L119.139362,11.8917021 L121.667021,11.8917021 L121.667021,17.0102128 C121.667021,17.2910652 121.681064,17.6035089 121.709149,17.9475532 C121.737234,18.2915975 121.810956,18.6145729 121.930319,18.9164894 C122.049682,19.2184058 122.232233,19.4711692 122.477979,19.6747872 C122.723725,19.8784053 123.071274,19.9802128 123.520638,19.9802128 C123.941917,19.9802128 124.296488,19.9100007 124.584362,19.7695745 C124.872235,19.6291482 125.110956,19.4395756 125.300532,19.2008511 C125.490108,18.9621265 125.627021,18.6882994 125.711277,18.3793617 C125.795532,18.070424 125.83766,17.7474484 125.83766,17.4104255 L125.83766,11.8917021 L128.365319,11.8917021 L128.365319,22.0023404 L128.365319,22.0023404 Z M131.272128,11.8917021 L133.799787,11.8917021 L133.799787,22.0023404 L131.272128,22.0023404 L131.272128,11.8917021 L131.272128,11.8917021 Z M130.914043,8.45829787 C130.914043,8.05106179 131.064999,7.69649087 131.366915,7.39457447 C131.668831,7.09265806 132.051487,6.94170213 132.514894,6.94170213 C132.9783,6.94170213 133.367978,7.08563686 133.683936,7.37351064 C133.999895,7.66138442 134.157872,8.02297655 134.157872,8.45829787 C134.157872,8.8936192 133.999895,9.25521133 133.683936,9.54308511 C133.367978,9.83095885 132.9783,9.97489362 132.514894,9.97489362 C132.051487,9.97489362 131.668831,9.82393769 131.366915,9.52202128 C131.064999,9.22010487 130.914043,8.86553395 130.914043,8.45829787 L130.914043,8.45829787 L130.914043,8.45829787 Z M135.527021,14.0402128 L135.527021,11.8917021 L137.61234,11.8917021 L137.61234,8.96382979 L140.14,8.96382979 L140.14,11.8917021 L142.920426,11.8917021 L142.920426,14.0402128 L140.14,14.0402128 L140.14,18.463617 C140.14,18.9691515 140.234786,19.3693602 140.424362,19.6642553 C140.613937,19.9591505 140.989572,20.1065957 141.551277,20.1065957 C141.775959,20.1065957 142.021701,20.0820215 142.288511,20.0328723 C142.55532,19.9837232 142.765956,19.9029793 142.920426,19.7906383 L142.920426,21.9180851 C142.653616,22.0444687 142.32713,22.1322338 141.940957,22.181383 C141.554785,22.2305321 141.214256,22.2551064 140.919362,22.2551064 C140.245316,22.2551064 139.694151,22.1813837 139.265851,22.0339362 C138.837551,21.8864887 138.500533,21.66181 138.254787,21.3598936 C138.009041,21.0579772 137.840532,20.6823426 137.749255,20.2329787 C137.657979,19.7836148 137.61234,19.2640455 137.61234,18.6742553 L137.61234,14.0402128 L135.527021,14.0402128 L135.527021,14.0402128 Z" id="grapefruit-3" fill="#FFFFFF"></path>
                </g>
            </g>
        </g>
    </g>
</svg>