<?xml version="1.0" encoding="utf-8"?>
<!-- Generator: Adobe Illustrator 16.0.0, SVG Export Plug-In . SVG Version: 6.00 Build 0)  -->
<!DOCTYPE svg PUBLIC "-//W3C//DTD SVG 1.1//EN" "http://www.w3.org/Graphics/SVG/1.1/DTD/svg11.dtd">
<svg version="1.1" id="Layer_1" xmlns:sketch="http://www.bohemiancoding.com/sketch/ns"
	 xmlns="http://www.w3.org/2000/svg" xmlns:xlink="http://www.w3.org/1999/xlink" x="0px" y="0px" width="320px" height="315px"
	 viewBox="0 0 320 315" enable-background="new 0 0 320 315" xml:space="preserve">
<title>grapefruit-logo-v2</title>
<desc>Created with Sketch.</desc>
<g id="Page-1" sketch:type="MSPage">
	<g id="lime" transform="translate(17.000000, 17.000000)" sketch:type="MSLayerGroup">
		<path id="path643" sketch:type="MSShapeGroup" fill="#CA4443" stroke="#CA4443" stroke-width="4" d="M12.775,90.94
			c-3.117,6.799-7.544,13.678-9.288,21c-6.169,25.899-3.11,51.061,5.149,76c4.172,12.6,8.646,25.295,16.765,36
			c18.661,24.607,41.772,39.984,70.402,50.219c18.75,6.701,39.13,8.936,59,6.496c13.438-1.651,28.411-3.008,41-8.168
			c49.574-20.318,82.046-67.838,85.91-120.547C287.507,72.898,206.727-9.13,126.803,1.364C74.675,8.209,34.093,44.435,12.775,90.94z
			"/>
		<path id="path705" sketch:type="MSShapeGroup" fill="#CA4443" d="M130.713,6.429c-20.774,2.926-42.547,10.002-59.91,22.244
			C41.536,49.306,19.335,76.872,10.36,111.94c-13.133,51.319,10.618,110.896,54.447,139.931
			c27.699,18.349,64.231,25.857,96.996,21.885c73.671-8.936,121.877-80.316,111.689-151.816
			C264.808,60.992,194.401-2.539,130.713,6.429L130.713,6.429z"/>
		<path id="path1028" sketch:type="MSShapeGroup" fill="#FFFFFF" d="M138.803,29.368c-21.154,2.526-39.562,5.21-58,17.216
			C35.796,75.892,15.166,135.791,36.677,185.77c10.354,24.055,29.072,43.598,51.411,57.051
			c22.689,13.664,51.391,13.836,76.715,10.953c16.382-1.865,33.768-13.285,46.13-23.562c23.512-19.545,39.655-45.535,42.586-76.272
			C259.377,92.512,204.917,21.474,138.803,29.368L138.803,29.368z"/>
		<path id="path1177" sketch:type="MSShapeGroup" fill="#CA4443" d="M146.803,35.685c-9.72,0.205-23.966-1.47-29.951,8.36
			c-2.829,4.645,0.374,9.337,1.651,13.895c3.291,11.746,5.654,23.512,10.052,35c3.185,8.322,4.558,16.889,8.612,25
			c1.047,2.095,2.896,6.793,5.749,6.793c5.828,0,12.351-21.017,14.5-25.793c5.497-12.22,9.242-25.251,13.006-38
			c1.448-4.904,4.637-10.695,2.484-15.892C169.65,37.19,154.093,35.532,146.803,35.685L146.803,35.685z"/>
		<path id="path1459" sketch:type="MSShapeGroup" fill="#CA4443" d="M96.802,53.957C83.996,53.159,67.675,72.323,62.088,81.94
			c-2.079,3.581-7.025,9.533-4.923,13.819c2.441,4.979,10.097,8.539,14.638,11.32c14.24,8.72,38.74,23.216,55.955,22.798
			c8.091-0.197,2.577-14.039,0.872-17.937c-6.275-14.347-13.645-28.629-19.541-43C106.708,63.134,104.735,54.451,96.802,53.957
			L96.802,53.957z"/>
		<path id="path1532" sketch:type="MSShapeGroup" fill="#CA4443" d="M191.104,57.928c-5.014,2.688-7.295,10.327-9.972,15.012
			c-7.199,12.6-14.78,24.845-20.833,38c-2.137,4.645-7.455,12.404-5.108,17.851c2.086,4.841,10.158,1.525,13.612,0.08
			c11.472-4.801,21.161-12.242,32-18.14c8.382-4.561,20.149-10.328,23.852-19.791C230.076,77.086,205.5,50.211,191.104,57.928
			L191.104,57.928z"/>
		<path id="path2530" sketch:type="MSShapeGroup" fill="#CA4443" d="M231.803,113.227c-3.353-0.078-6.666,2.77-10,3.384
			c-15.305,2.819-30.611,9.782-45,15.94c-3.759,1.609-14.552,5.033-14.379,10.354c0.174,5.334,11.571,7.961,15.379,9.625
			c16.516,7.22,34.726,16.619,53.075,16.342c15.326-0.231,15.88-34.652,12.336-44.931
			C241.815,119.882,236.49,113.336,231.803,113.227L231.803,113.227z"/>
		<path id="path2596" sketch:type="MSShapeGroup" fill="#CA4443" d="M50.818,114.513c-9.355,2.719-10.732,15.407-10.875,23.427
			c-0.316,17.695,0.639,36.686,23.86,30.46c14.673-3.933,30.788-9.734,44-17.164c3.764-2.117,11.936-4.604,13.029-9.424
			c1.514-6.67-10.85-9.067-15.029-11.142c-9.49-4.711-19.211-7.011-29-10.718C69.257,117.096,59.201,112.078,50.818,114.513
			L50.818,114.513z"/>
		<path id="path3408" sketch:type="MSShapeGroup" fill="#CA4443" d="M123.799,151.791c-5.644,0.713-10.986,5.082-16,7.47
			c-14.697,7-39.235,16.513-47.308,31.72c-7.93,14.935,14.365,38.053,30.222,36.436c6.36-0.649,10.888-10.561,13.359-15.477
			c7.61-15.142,16.216-29.735,23.636-45C130.011,162.203,133.103,150.617,123.799,151.791L123.799,151.791z"/>
		<path id="path3493" sketch:type="MSShapeGroup" fill="#CA4443" d="M156.561,155.969c-5.392,4.499,5.733,25.987,8.134,30.971
			c5.125,10.638,9.628,21.42,14.829,32c2.1,4.273,3.694,10.194,9.319,10.812c7.257,0.796,14.555-6.923,19.676-11.18
			c6.298-5.232,23.364-22.321,19.542-31.528c-4.209-10.142-25.087-16.322-34.257-20.769c-8.919-4.324-17.31-8.045-27-10
			C163.958,155.701,159.154,153.804,156.561,155.969L156.561,155.969z"/>
		<path id="path3689" sketch:type="MSShapeGroup" fill="#CA4443" d="M139.861,162.076c-8.38,3.594-12.086,24.141-14.781,31.863
			c-3.787,10.854-16.079,30.002-12.689,41.907c1.45,5.091,7.918,6.593,12.412,7.712c11.744,2.928,29.508,4.959,40.895-0.462
			c7.178-3.418,5.702-11.069,4.039-17.161c-4.305-15.769-10.064-33.065-16.759-47.996
			C150.886,173.275,147.781,158.679,139.861,162.076L139.861,162.076z"/>
	</g>
	<path id="grapefruit-3" sketch:type="MSShapeGroup" fill="#404040" d="M493.84,118.62v78.66c0,7.8-0.96,14.85-2.88,21.149
		c-1.92,6.301-4.89,11.641-8.91,16.021c-4.02,4.38-9.09,7.77-15.21,10.17c-6.12,2.399-13.38,3.6-21.78,3.6
		c-8.04,0-15.659-1.02-22.859-3.06s-13.86-5.76-19.98-11.16l12.96-17.641c4.32,3.961,8.82,7.021,13.5,9.181
		c4.681,2.16,10.08,3.24,16.2,3.24c5.16,0,9.51-0.72,13.05-2.16s6.36-3.42,8.46-5.94c2.101-2.52,3.601-5.55,4.5-9.09
		c0.9-3.54,1.351-7.47,1.351-11.79v-6.3h-0.36c-3.12,4.2-7.26,7.35-12.42,9.45c-5.16,2.1-10.44,3.149-15.84,3.149
		c-6.48,0-12.36-1.17-17.64-3.51c-5.28-2.34-9.811-5.49-13.591-9.449c-3.779-3.961-6.689-8.641-8.729-14.041
		c-2.04-5.399-3.061-11.16-3.061-17.279c0-6.36,0.96-12.3,2.881-17.82c1.92-5.52,4.739-10.32,8.46-14.4
		c3.72-4.08,8.189-7.29,13.409-9.63c5.221-2.34,11.19-3.51,17.91-3.51c6.12,0,11.82,1.2,17.101,3.6c5.279,2.4,9.479,6.24,12.6,11.52
		h0.36v-12.96H493.84z M447.76,135.9c-3.84,0-7.319,0.63-10.439,1.89s-5.79,3-8.011,5.22c-2.22,2.22-3.96,4.92-5.22,8.1
		c-1.26,3.18-1.89,6.69-1.89,10.531c0,3.479,0.63,6.719,1.89,9.719s3.03,5.641,5.311,7.921c2.279,2.28,4.979,4.079,8.1,5.399
		s6.48,1.98,10.08,1.98c3.96,0,7.53-0.66,10.71-1.98s5.88-3.09,8.1-5.31c2.221-2.22,3.931-4.89,5.13-8.011
		c1.2-3.119,1.801-6.479,1.801-10.079c0-7.561-2.28-13.68-6.84-18.36C461.92,138.24,455.68,135.9,447.76,135.9L447.76,135.9z
		 M518.32,118.62h21.6v13.68h0.36c2.399-5.04,5.819-8.94,10.26-11.7c4.44-2.76,9.54-4.14,15.3-4.14c1.32,0,2.61,0.12,3.87,0.36
		c1.26,0.24,2.55,0.54,3.87,0.9v20.88c-1.8-0.48-3.57-0.87-5.311-1.17c-1.739-0.3-3.449-0.45-5.13-0.45
		c-5.04,0-9.09,0.93-12.149,2.79c-3.061,1.86-5.4,3.99-7.021,6.39c-1.62,2.4-2.7,4.8-3.239,7.2c-0.54,2.4-0.811,4.2-0.811,5.4v46.26
		h-21.6V118.62z M642.34,193.141h-0.54c-3.12,4.92-7.08,8.489-11.88,10.709c-4.8,2.221-10.08,3.33-15.84,3.33
		c-3.96,0-7.83-0.539-11.61-1.619c-3.779-1.08-7.14-2.701-10.08-4.86c-2.939-2.16-5.31-4.86-7.109-8.101s-2.7-7.02-2.7-11.34
		c0-4.68,0.84-8.67,2.52-11.97c1.681-3.3,3.931-6.06,6.75-8.28c2.82-2.22,6.091-3.99,9.811-5.31c3.72-1.32,7.59-2.31,11.609-2.97
		c4.021-0.66,8.07-1.08,12.15-1.26c4.08-0.18,7.92-0.27,11.521-0.27h5.399v-2.34c0-5.4-1.859-9.45-5.58-12.15
		c-3.72-2.7-8.46-4.05-14.22-4.05c-4.56,0-8.82,0.81-12.78,2.43s-7.38,3.81-10.26,6.57l-11.34-11.34
		c4.8-4.92,10.41-8.46,16.83-10.62c6.42-2.16,13.05-3.24,19.89-3.24c6.12,0,11.28,0.69,15.48,2.07c4.199,1.38,7.68,3.15,10.439,5.31
		c2.76,2.16,4.891,4.65,6.391,7.47s2.579,5.67,3.239,8.55c0.66,2.88,1.051,5.67,1.17,8.37c0.12,2.7,0.181,5.07,0.181,7.11v49.68
		h-19.44V193.141z M641.08,166.32h-4.5c-3,0-6.36,0.119-10.08,0.359s-7.23,0.811-10.53,1.711c-3.3,0.899-6.09,2.219-8.37,3.959
		c-2.279,1.74-3.42,4.17-3.42,7.291c0,2.039,0.45,3.75,1.351,5.129c0.899,1.381,2.069,2.551,3.51,3.511s3.06,1.649,4.86,2.069
		c1.8,0.42,3.6,0.631,5.399,0.631c7.44,0,12.931-1.771,16.47-5.311c3.54-3.54,5.311-8.37,5.311-14.49V166.32z M685,118.62h20.52
		v12.96h0.36c3.12-5.28,7.32-9.12,12.601-11.52c5.279-2.4,10.979-3.6,17.1-3.6c6.6,0,12.54,1.17,17.82,3.51
		c5.279,2.34,9.779,5.55,13.5,9.63c3.72,4.08,6.54,8.88,8.46,14.4s2.88,11.46,2.88,17.82c0,6.359-1.021,12.3-3.061,17.82
		c-2.04,5.52-4.89,10.319-8.55,14.399s-8.07,7.29-13.229,9.63c-5.16,2.34-10.801,3.51-16.92,3.51c-4.08,0-7.681-0.42-10.801-1.26
		s-5.88-1.92-8.279-3.24c-2.4-1.32-4.44-2.729-6.12-4.229c-1.681-1.5-3.061-2.97-4.141-4.41h-0.54v52.021H685V118.62z
		 M756.64,161.82c0-3.36-0.569-6.6-1.71-9.72c-1.14-3.12-2.819-5.88-5.04-8.28c-2.22-2.4-4.89-4.32-8.01-5.76s-6.66-2.16-10.62-2.16
		s-7.5,0.72-10.62,2.16s-5.79,3.36-8.01,5.76c-2.22,2.4-3.899,5.16-5.04,8.28c-1.14,3.12-1.71,6.36-1.71,9.72
		c0,3.359,0.57,6.6,1.71,9.72c1.141,3.12,2.82,5.88,5.04,8.28s4.89,4.32,8.01,5.76s6.66,2.16,10.62,2.16s7.5-0.721,10.62-2.16
		s5.79-3.359,8.01-5.76c2.221-2.4,3.9-5.16,5.04-8.28C756.07,168.42,756.64,165.18,756.64,161.82L756.64,161.82z M815.68,169.38
		c0.721,6.479,3.24,11.521,7.561,15.12c4.319,3.6,9.54,5.4,15.66,5.4c5.399,0,9.93-1.11,13.59-3.33c3.66-2.221,6.87-5.01,9.63-8.37
		l15.479,11.7c-5.04,6.24-10.68,10.68-16.92,13.319s-12.779,3.96-19.62,3.96c-6.479,0-12.6-1.08-18.359-3.24
		c-5.761-2.16-10.74-5.219-14.94-9.18c-4.2-3.96-7.529-8.729-9.99-14.31c-2.46-5.58-3.689-11.79-3.689-18.63
		c0-6.84,1.229-13.05,3.689-18.63c2.461-5.58,5.79-10.35,9.99-14.31s9.18-7.02,14.94-9.18c5.76-2.16,11.88-3.24,18.359-3.24
		c6.001,0,11.49,1.05,16.471,3.15c4.979,2.1,9.239,5.13,12.779,9.09s6.301,8.85,8.28,14.67c1.98,5.82,2.97,12.51,2.97,20.069v5.94
		H815.68z M859.96,153.18c-0.12-6.36-2.1-11.37-5.94-15.03c-3.84-3.66-9.18-5.49-16.02-5.49c-6.48,0-11.61,1.86-15.39,5.58
		c-3.78,3.72-6.091,8.7-6.931,14.94H859.96z M909.46,136.98h-17.82v-18.36h17.82v-12.24c0-6,0.42-11.43,1.26-16.29
		c0.84-4.86,2.431-9.03,4.771-12.51s5.609-6.15,9.81-8.01c4.2-1.86,9.66-2.79,16.38-2.79c4.92,0,9.48,0.42,13.681,1.26l-1.44,18.36
		c-1.56-0.36-3.06-0.66-4.5-0.9c-1.439-0.24-2.939-0.36-4.5-0.36c-3,0-5.4,0.48-7.2,1.44s-3.21,2.25-4.229,3.87
		c-1.021,1.62-1.681,3.51-1.98,5.67s-0.45,4.44-0.45,6.84v15.66h19.98v18.36h-19.98v68.04h-21.6V136.98z M965.08,118.62h21.6v13.68
		h0.36c2.4-5.04,5.82-8.94,10.26-11.7c4.44-2.76,9.54-4.14,15.3-4.14c1.32,0,2.61,0.12,3.87,0.36c1.261,0.24,2.55,0.54,3.87,0.9
		v20.88c-1.8-0.48-3.57-0.87-5.31-1.17c-1.74-0.3-3.45-0.45-5.13-0.45c-5.04,0-9.091,0.93-12.15,2.79s-5.4,3.99-7.02,6.39
		c-1.62,2.4-2.7,4.8-3.24,7.2s-0.811,4.2-0.811,5.4v46.26h-21.6V118.62z M1113.939,205.02h-20.52V191.16h-0.359
		c-2.041,4.32-5.16,8.07-9.36,11.25s-9.9,4.77-17.101,4.77c-5.76,0-10.649-0.93-14.67-2.789c-4.02-1.861-7.29-4.381-9.81-7.561
		c-2.521-3.18-4.32-6.811-5.4-10.891s-1.62-8.34-1.62-12.779v-54.54h21.601v43.739c0,2.4,0.12,5.07,0.36,8.011
		c0.239,2.94,0.869,5.7,1.89,8.28c1.02,2.58,2.58,4.74,4.68,6.479c2.101,1.74,5.07,2.61,8.91,2.61c3.6,0,6.63-0.6,9.09-1.801
		c2.46-1.199,4.5-2.819,6.12-4.859s2.79-4.38,3.51-7.02c0.721-2.641,1.08-5.4,1.08-8.28v-47.16h21.6V205.02z M1138.78,118.62h21.6
		v86.399h-21.6V118.62z M1135.72,89.28c0-3.48,1.29-6.51,3.87-9.09s5.85-3.87,9.811-3.87c3.96,0,7.289,1.23,9.989,3.69
		c2.7,2.46,4.05,5.55,4.05,9.271c0,3.72-1.35,6.81-4.05,9.27s-6.029,3.69-9.989,3.69c-3.961,0-7.23-1.29-9.811-3.87
		S1135.72,92.76,1135.72,89.28L1135.72,89.28z M1175.14,136.98v-18.36h17.82V93.6h21.601v25.02h23.76v18.36h-23.76v37.8
		c0,4.319,0.81,7.739,2.43,10.26s4.83,3.78,9.63,3.78c1.92,0,4.02-0.211,6.3-0.631s4.08-1.109,5.4-2.069v18.18
		c-2.28,1.08-5.07,1.83-8.37,2.25s-6.21,0.63-8.73,0.63c-5.76,0-10.47-0.63-14.13-1.89s-6.54-3.181-8.64-5.76
		c-2.101-2.58-3.54-5.79-4.32-9.63s-1.17-8.28-1.17-13.32v-39.6H1175.14z"/>
</g>
</svg>
