<?xml version="1.0" encoding="utf-8"?>
<!-- Generator: Adobe Illustrator 16.0.0, SVG Export Plug-In . SVG Version: 6.00 Build 0)  -->
<!DOCTYPE svg PUBLIC "-//W3C//DTD SVG 1.1//EN" "http://www.w3.org/Graphics/SVG/1.1/DTD/svg11.dtd">
<svg version="1.1" id="Layer_1" xmlns:sketch="http://www.bohemiancoding.com/sketch/ns"
	 xmlns="http://www.w3.org/2000/svg" xmlns:xlink="http://www.w3.org/1999/xlink" x="0px" y="0px" width="320px" height="315px"
	 viewBox="0 0 320 315" enable-background="new 0 0 320 315" xml:space="preserve">
<g id="Page-1" sketch:type="MSPage">
	<g id="lime" transform="translate(17.000000, 17.000000)" sketch:type="MSLayerGroup">
		<path id="path643" sketch:type="MSShapeGroup" fill="#CA4443" stroke="#CA4443" stroke-width="4" d="M12.775,90.94
			c-3.117,6.799-7.544,13.678-9.288,21c-6.169,25.899-3.11,51.061,5.149,76c4.172,12.601,8.646,25.295,16.765,36
			c18.661,24.607,41.772,39.984,70.402,50.22c18.75,6.7,39.13,8.937,59,6.495c13.438-1.65,28.411-3.008,41-8.168
			c49.574-20.317,82.047-67.838,85.91-120.547C287.507,72.898,206.727-9.13,126.803,1.364C74.675,8.209,34.093,44.435,12.775,90.94z
			"/>
		<path id="path705" sketch:type="MSShapeGroup" fill="#CA4443" d="M130.713,6.429c-20.774,2.926-42.547,10.002-59.91,22.244
			C41.536,49.306,19.335,76.872,10.36,111.94c-13.133,51.319,10.618,110.896,54.447,139.931
			c27.699,18.35,64.231,25.857,96.996,21.885c73.672-8.936,121.877-80.316,111.689-151.816
			C264.809,60.992,194.4-2.539,130.713,6.429L130.713,6.429z"/>
		<path id="path1028" sketch:type="MSShapeGroup" fill="#FFFFFF" d="M138.803,29.368c-21.154,2.526-39.562,5.21-58,17.216
			C35.796,75.892,15.166,135.791,36.677,185.77c10.354,24.056,29.072,43.599,51.411,57.051
			c22.689,13.664,51.391,13.837,76.715,10.953c16.383-1.864,33.768-13.284,46.131-23.562c23.512-19.545,39.654-45.535,42.586-76.272
			C259.377,92.512,204.917,21.474,138.803,29.368L138.803,29.368z"/>
		<path id="path1177" sketch:type="MSShapeGroup" fill="#CA4443" d="M146.803,35.685c-9.72,0.205-23.966-1.47-29.951,8.36
			c-2.829,4.645,0.374,9.337,1.651,13.895c3.291,11.746,5.654,23.512,10.052,35c3.185,8.322,4.558,16.889,8.612,25
			c1.047,2.095,2.896,6.793,5.749,6.793c5.828,0,12.352-21.017,14.5-25.793c5.497-12.22,9.242-25.251,13.006-38
			c1.448-4.904,4.637-10.695,2.484-15.892C169.65,37.19,154.093,35.532,146.803,35.685L146.803,35.685z"/>
		<path id="path1459" sketch:type="MSShapeGroup" fill="#CA4443" d="M96.802,53.957C83.996,53.159,67.675,72.323,62.088,81.94
			c-2.079,3.581-7.025,9.533-4.923,13.819c2.441,4.979,10.097,8.539,14.638,11.32c14.24,8.72,38.74,23.216,55.955,22.798
			c8.091-0.197,2.577-14.039,0.872-17.937c-6.275-14.347-13.645-28.629-19.541-43C106.708,63.134,104.735,54.451,96.802,53.957
			L96.802,53.957z"/>
		<path id="path1532" sketch:type="MSShapeGroup" fill="#CA4443" d="M191.104,57.928c-5.014,2.688-7.295,10.327-9.972,15.012
			c-7.198,12.6-14.78,24.845-20.833,38c-2.137,4.645-7.455,12.404-5.107,17.851c2.086,4.841,10.158,1.525,13.611,0.08
			c11.473-4.801,21.161-12.242,32-18.14c8.383-4.561,20.149-10.328,23.852-19.791C230.076,77.086,205.5,50.211,191.104,57.928
			L191.104,57.928z"/>
		<path id="path2530" sketch:type="MSShapeGroup" fill="#CA4443" d="M231.803,113.227c-3.353-0.078-6.666,2.77-10,3.384
			c-15.305,2.819-30.611,9.782-45,15.94c-3.759,1.609-14.552,5.033-14.379,10.354c0.174,5.334,11.571,7.961,15.379,9.625
			c16.516,7.22,34.727,16.618,53.075,16.342c15.326-0.231,15.88-34.652,12.336-44.931
			C241.814,119.882,236.49,113.336,231.803,113.227L231.803,113.227z"/>
		<path id="path2596" sketch:type="MSShapeGroup" fill="#CA4443" d="M50.818,114.513c-9.355,2.719-10.732,15.407-10.875,23.427
			c-0.316,17.695,0.639,36.686,23.86,30.46c14.673-3.934,30.788-9.734,44-17.164c3.764-2.117,11.936-4.604,13.029-9.424
			c1.514-6.67-10.85-9.067-15.029-11.143c-9.49-4.711-19.211-7.011-29-10.718C69.257,117.096,59.201,112.078,50.818,114.513
			L50.818,114.513z"/>
		<path id="path3408" sketch:type="MSShapeGroup" fill="#CA4443" d="M123.799,151.791c-5.644,0.713-10.986,5.082-16,7.47
			c-14.697,7-39.235,16.513-47.308,31.72c-7.93,14.936,14.365,38.054,30.222,36.437c6.36-0.649,10.888-10.562,13.359-15.478
			c7.61-15.142,16.216-29.734,23.636-45C130.011,162.203,133.103,150.617,123.799,151.791L123.799,151.791z"/>
		<path id="path3493" sketch:type="MSShapeGroup" fill="#CA4443" d="M156.561,155.969c-5.392,4.499,5.733,25.987,8.135,30.971
			c5.125,10.639,9.628,21.42,14.828,32c2.101,4.273,3.694,10.194,9.319,10.812c7.257,0.796,14.556-6.923,19.677-11.18
			c6.297-5.232,23.363-22.321,19.541-31.528c-4.209-10.142-25.086-16.321-34.256-20.769c-8.92-4.324-17.311-8.045-27-10
			C163.958,155.701,159.154,153.805,156.561,155.969L156.561,155.969z"/>
		<path id="path3689" sketch:type="MSShapeGroup" fill="#CA4443" d="M139.861,162.076c-8.38,3.594-12.086,24.141-14.781,31.863
			c-3.787,10.854-16.079,30.002-12.689,41.906c1.45,5.092,7.918,6.594,12.412,7.713c11.744,2.928,29.507,4.959,40.895-0.463
			c7.178-3.418,5.702-11.068,4.038-17.16c-4.305-15.77-10.063-33.065-16.758-47.996C150.887,173.275,147.781,158.68,139.861,162.076
			L139.861,162.076z"/>
	</g>
</g>
</svg>
