<?xml version="1.0" encoding="UTF-8" standalone="no"?>
<svg width="158px" height="44px" viewBox="0 0 158 44" version="1.1" xmlns="http://www.w3.org/2000/svg" xmlns:xlink="http://www.w3.org/1999/xlink" xmlns:sketch="http://www.bohemiancoding.com/sketch/ns">
    <!-- Generator: Sketch 3.3.2 (12043) - http://www.bohemiancoding.com/sketch -->
    <title>blacklogo copy</title>
    <desc>Created with Sketch.</desc>
    <defs></defs>
    <g id="grapefruit" stroke="none" stroke-width="1" fill="none" fill-rule="evenodd" sketch:type="MSPage">
        <g id="blacklogo-copy" sketch:type="MSArtboardGroup">
            <g id="grapefruit-logo" sketch:type="MSLayerGroup" transform="translate(7.000000, 4.000000)">
                <g id="Page-1" sketch:type="MSShapeGroup">
                    <g id="lime">
                        <path d="M15.2962357,0.752338798 C12.8652372,1.09472105 10.3173318,1.92287922 8.28549056,3.35533726 C4.86063085,5.76983854 2.26264102,8.99564635 1.21237974,13.0993477 C-0.324460213,19.1047626 2.45490768,26.0765387 7.58383438,29.4742519 C10.8252038,31.6214752 15.1002266,32.5001883 18.9344411,32.0352637 C27.5555037,30.9896789 33.1966306,22.6365817 32.0044193,14.2695604 C30.9882077,7.13734789 22.7490998,-0.297117255 15.2962358,0.752338798 L15.2962357,0.752338798 L15.2962357,0.752338798 Z" id="path705" fill="#CA4443"></path>
                        <path d="M16.2429375,3.43666786 C13.7674703,3.73226372 11.613344,4.04634766 9.45570345,5.45130651 C4.18892814,8.88096597 1.77466265,15.8904236 4.29202529,21.7390305 C5.50366405,24.5539765 7.69406679,26.8408053 10.3082038,28.4150929 C12.9633026,30.0140718 16.3220468,30.034317 19.2855048,29.6968273 C21.2025461,29.4785838 23.2370799,28.1421992 24.6836969,26.9396884 C27.4350897,24.6525096 29.3241648,21.6111241 29.6671541,18.0142413 C30.352665,10.825859 23.979698,2.5129005 16.2429374,3.43666786 L16.2429375,3.43666786 L16.2429375,3.43666786 Z" id="path1028" fill="#FFFFFF"></path>
                        <path d="M17.179122,4.1758915 C16.0416643,4.1998811 14.3745789,4.00387011 13.6742047,5.15418949 C13.3431504,5.69775203 13.7179699,6.24681598 13.867407,6.78019884 C14.2525259,8.15473099 14.5290443,9.53160415 15.0437051,10.8759435 C15.4164176,11.8497953 15.5770897,12.8523168 16.0514923,13.8014754 C16.1740132,14.0466351 16.3903855,14.5964009 16.7242468,14.5964009 C17.4062578,14.5964009 18.1695889,12.1369649 18.4210696,11.5780712 C19.0643331,10.1480728 19.5025772,8.62316786 19.9430461,7.13126267 C20.1124927,6.55739127 20.4856766,5.87972105 20.233728,5.27156078 C19.8527053,4.35200735 18.0322045,4.15798736 17.179122,4.17589162 L17.179122,4.1758915 L17.179122,4.1758915 Z" id="path1177" fill="#CA4443"></path>
                        <path d="M11.3279295,6.31410462 C9.82935507,6.22072117 7.91944918,8.46331703 7.26565061,9.58870936 C7.02236583,10.0077636 6.44357684,10.7042738 6.6895579,11.2058264 C6.97520438,11.7884758 7.87111998,12.2050712 8.40251184,12.5305081 C10.0688973,13.5509337 12.9359186,15.2472744 14.9504394,15.1983596 C15.8972589,15.1753057 15.2520027,13.5554978 15.052483,13.0993475 C14.3181716,11.4204433 13.4557253,9.74914565 12.7657683,8.06743265 C12.4870249,7.38800712 12.2562572,6.37191161 11.3279294,6.3141045 L11.3279295,6.31410462 L11.3279295,6.31410462 Z" id="path1459" fill="#CA4443"></path>
                        <path d="M22.363281,6.77879529 C21.7765354,7.09334895 21.5096127,7.98727354 21.1963466,8.53551787 C20.3539098,10.0099867 19.4667687,11.4429116 18.7584414,12.9823264 C18.5083641,13.5258907 17.8860458,14.4338591 18.1606964,15.0712747 C18.4048027,15.6377733 19.3493974,15.2497315 19.7535901,15.0806349 C21.0960599,14.5188163 22.2298786,13.6480617 23.4982709,12.9578691 C24.479142,12.4241363 25.8561203,11.7492747 26.2894505,10.641901 C26.9238216,9.02068949 24.0479188,5.87574268 22.363281,6.7787954 L22.363281,6.77879529 L22.363281,6.77879529 Z" id="path1532" fill="#CA4443"></path>
                        <path d="M27.1259197,13.2499544 C26.7335477,13.2408264 26.345854,13.5741038 25.955707,13.6459547 C24.1647079,13.9758377 22.3735802,14.7906566 20.6897603,15.5112741 C20.2498769,15.6995607 18.9868664,16.1002428 19.0071116,16.7227951 C19.0274711,17.3471044 20.3611629,17.6545192 20.8067816,17.8492444 C22.7395039,18.6940203 24.8704639,19.7940196 27.0176729,19.761486 C28.8111432,19.7344554 28.8759714,15.7064655 28.4612473,14.503603 C28.297536,14.0287308 27.6743963,13.2627106 27.1259198,13.2499544 L27.1259197,13.2499544 L27.1259197,13.2499544 Z" id="path2530" fill="#CA4443"></path>
                        <path d="M5.94682211,13.400445 C4.85208678,13.7186252 4.69095035,15.2033916 4.67421572,16.141901 C4.63723583,18.2125933 4.74899326,20.4349441 7.46634163,19.706486 C9.18339529,19.2462433 11.0691956,18.5672856 12.6152778,17.6978166 C13.0557468,17.4500821 14.0120443,17.1590501 14.1399506,16.5950085 C14.3171217,15.8144768 12.870269,15.5339765 12.3812352,15.2912738 C11.2707045,14.7399867 10.1331396,14.4708374 8.98761822,14.0370395 C8.10457684,13.7027103 6.92781088,13.1154969 5.94682211,13.4004453 L5.94682211,13.400445 L5.94682211,13.400445 Z" id="path2596" fill="#CA4443"></path>
                        <path d="M14.4871505,17.7627642 C13.8266845,17.8462019 13.2015557,18.3574664 12.6148101,18.6369132 C10.8949494,19.4560622 8.02348203,20.5692856 7.0787695,22.3487104 C6.1507916,24.0964229 8.75977897,26.8017221 10.6153848,26.6124982 C11.359642,26.5365494 11.8895124,25.3767538 12.1786731,24.8014754 C13.0692068,23.0295395 14.0762904,21.3217317 14.9445899,19.535518 C15.2140875,18.9811882 15.5758006,17.6253799 14.4871506,17.7627642 L14.4871505,17.7627642 L14.4871505,17.7627642 Z" id="path3408" fill="#CA4443"></path>
                        <path d="M18.3208972,18.2516765 C17.6899187,18.7781579 18.9917804,21.2927119 19.2727486,21.8759434 C19.8724826,23.1206979 20.3994319,24.3824228 21.0080583,25.6206243 C21.2538036,26.1206573 21.4403349,26.8135391 22.0985795,26.8858597 C22.9478017,26.9790075 23.8018234,26.0757209 24.4010896,25.577677 C25.1380794,24.9653044 27.1351621,22.9655291 26.6879078,21.8881141 C26.1953671,20.7014024 23.7522086,19.9780939 22.679122,19.4578156 C21.6354085,18.9517007 20.6534839,18.5162636 19.5195475,18.2874885 C19.1866219,18.2203141 18.6244498,17.998328 18.3208973,18.2516765 L18.3208972,18.2516765 L18.3208972,18.2516765 Z" id="path3493" fill="#CA4443"></path>
                        <path d="M16.3667476,18.9663284 C15.3861088,19.3869021 14.9524286,21.791338 14.6370554,22.6950923 C14.1938974,23.9651239 12.7554728,26.2059663 13.1521731,27.5991045 C13.3218553,28.1947423 14.0787474,28.3705064 14.6046396,28.5015733 C15.9789397,28.8440948 18.0577173,29.0818799 19.3902377,28.4475088 C20.2302175,28.0475301 20.0574961,27.1520824 19.8628868,26.4393053 C19.359111,24.5939989 18.6851852,22.5698786 17.9017268,20.8227519 C17.6569207,20.2768502 17.2935683,18.5688067 16.3667475,18.9663284 L16.3667476,18.9663284 L16.3667476,18.9663284 Z" id="path3689" fill="#CA4443"></path>
                    </g>
                </g>
            </g>
            <text id="Grapefruit" sketch:type="MSTextLayer" font-family="Lato" font-size="22" font-weight="bold" fill="#343434">
                <tspan x="49" y="28.154">Grapefruit</tspan>
            </text>
        </g>
    </g>
</svg>